<?xml version="1.0" standalone="no"?><!DOCTYPE svg PUBLIC "-//W3C//DTD SVG 1.1//EN" "http://www.w3.org/Graphics/SVG/1.1/DTD/svg11.dtd"><svg t="1774326432823" class="icon" viewBox="0 0 1024 1024" version="1.1" xmlns="http://www.w3.org/2000/svg" p-id="3104" xmlns:xlink="http://www.w3.org/1999/xlink" width="200" height="200"><path fill="#000000" d="M332.16 440.96c0 85.76 69.76 155.52 155.52 155.52s155.52-69.76 155.52-155.52-69.76-155.52-155.52-155.52-155.52 69.76-155.52 155.52z m215.04 0c0 32.64-26.88 59.52-59.52 59.52s-59.52-26.24-59.52-59.52c0-32.64 26.88-59.52 59.52-59.52s59.52 26.88 59.52 59.52z" p-id="3105"></path><path fill="#000000" d="M947.2 349.44a450.048 450.048 0 0 0-138.24-223.36A449.536 449.536 0 0 0 570.24 17.28C481.28 5.12 391.68 19.84 310.4 59.52c-80.64 39.68-147.2 101.12-192 179.2a450.944 450.944 0 0 0-60.16 255.36c5.76 88.96 37.12 174.08 92.16 246.4a446.592 446.592 0 0 0 213.12 152.96c47.36 16.64 96.64 24.32 145.92 24.32 30.72 0 61.44-3.84 91.52-10.24l-17.92 30.08c-13.44 23.04-6.4 52.48 16.64 65.92 7.68 4.48 16 7.04 24.32 7.04 16 0 32-8.32 40.96-23.04l73.6-123.52c8.32-11.52 11.52-26.24 8.32-40.32a59.52 59.52 0 0 0-25.6-36.48L595.2 711.68a47.36 47.36 0 0 0-65.92 16.64c-13.44 22.4-6.4 52.48 16.64 65.92l33.28 19.84c-62.08 12.8-126.08 9.6-186.24-11.52-66.56-22.4-124.8-64-167.68-120.32-41.6-56.96-67.2-123.52-71.04-193.92-4.48-70.4 12.16-140.16 47.36-200.96 35.2-61.44 87.68-110.08 151.68-140.8 64-31.36 134.4-42.88 204.8-33.28 69.76 8.96 135.04 38.4 188.16 85.76 53.12 47.36 90.88 108.16 108.8 176 7.04 25.6 33.28 40.96 58.88 33.92 24.96-7.68 40.32-33.92 33.28-59.52z" p-id="3106"></path></svg>