<?xml version="1.0" standalone="no"?><!DOCTYPE svg PUBLIC "-//W3C//DTD SVG 1.1//EN" "http://www.w3.org/Graphics/SVG/1.1/DTD/svg11.dtd"><svg t="1774326369953" class="icon" viewBox="0 0 1024 1024" version="1.1" xmlns="http://www.w3.org/2000/svg" p-id="4917" xmlns:xlink="http://www.w3.org/1999/xlink" width="200" height="200"><path fill="#000000" d="M677.76 441.6c0-85.76-69.76-155.52-155.52-155.52S366.72 355.84 366.72 441.6s69.76 155.52 155.52 155.52 155.52-69.76 155.52-155.52z m-215.68 0a59.84 59.84 0 0 1 119.68 0c0 32.64-26.88 59.52-59.52 59.52s-60.16-26.88-60.16-59.52z" p-id="4918"></path><path fill="#000000" d="M890.88 238.72a455.04 455.04 0 0 0-192-179.2A449.408 449.408 0 0 0 439.68 17.28a449.28 449.28 0 0 0-239.36 108.8C132.48 185.6 85.12 263.04 62.08 349.44a48 48 0 1 0 92.8 24.96 352.64 352.64 0 0 1 108.8-176c53.12-46.72 118.4-76.8 188.16-85.76a352.64 352.64 0 0 1 204.16 33.28c63.36 31.36 115.84 80 151.68 140.8a356.8 356.8 0 0 1-24.96 394.88 355.2 355.2 0 0 1-168.32 120.96c-59.52 20.48-123.52 23.68-186.24 11.52l33.28-19.84c22.4-13.44 30.08-42.88 16.64-65.92a47.936 47.936 0 0 0-65.92-16.64l-127.36 76.16c-12.16 7.68-21.12 20.48-23.68 35.2-2.56 11.52 0.64 28.16 6.4 38.4l75.52 126.08c8.96 14.72 24.96 23.04 40.96 23.04 8.32 0 16.64-1.92 24.32-7.04 23.04-13.44 30.08-42.88 16.64-65.92l-17.92-30.08c30.72 6.4 61.44 10.24 92.16 10.24 49.28 0 98.56-8.32 145.92-24.32a449.024 449.024 0 0 0 213.12-153.6 454.784 454.784 0 0 0 92.16-246.4c6.4-88.96-14.08-177.28-59.52-254.72z" p-id="4919"></path></svg>